<svg id="Layer_1" data-name="Layer 1" xmlns="http://www.w3.org/2000/svg" viewBox="0 0 36 36"><defs><style>.cls-1{fill:#fff;}</style></defs><title>id</title><polygon points="35 17.98 27.3 30.57 1 30.57 1 5.43 27.3 5.43 35 17.98 35 17.98"/><path class="cls-1" d="M4.92,10.45h8.73V12.8H10.71v10.4h2.95v2.34H4.92V23.21H7.8V12.8H4.92V10.45Z"/><path class="cls-1" d="M17,25.55V10.45h3.91A7,7,0,0,1,23.6,11a6.06,6.06,0,0,1,2.09,1.43A6.38,6.38,0,0,1,27,14.59a8,8,0,0,1,.47,2.8v1.24a8,8,0,0,1-.47,2.8,6.52,6.52,0,0,1-1.32,2.19,5.9,5.9,0,0,1-2,1.43,6.65,6.65,0,0,1-2.63.51H17ZM19.9,12.81V23.21H21a3.35,3.35,0,0,0,1.47-.31,3,3,0,0,0,1.1-.9,4.24,4.24,0,0,0,.69-1.44,7.09,7.09,0,0,0,.24-1.92V17.37a6.87,6.87,0,0,0-.23-1.85,4.18,4.18,0,0,0-.7-1.44,3.18,3.18,0,0,0-1.14-.93,3.54,3.54,0,0,0-1.57-.33h-1Z"/></svg>