<svg width="54" height="55" xmlns="http://www.w3.org/2000/svg">
 <title></title>

 <g>
  <title>background</title>
  <rect fill="none" id="canvas_background" height="57" width="56" y="-1" x="-1"/>
 </g>
 <g>
  <title>Layer 1</title>
  <path id="svg_1" fill="#ff6161" d="m50.47294,17.136594l-14.79,0l0,-13.85c0,-0.91 0,-1.15 -0.88,-1.15l-15.68,0c-0.91,0 -2.44,0.24 -2.44,1.15l0,13.85l-13.23,0c-0.91,0 -0.77,0.91 -0.77,1.82l0,15.67c0,0.91 -0.14,1.5 0.77,1.5l13.23,0l0,14.18c0,0.91 1.53,1.83 2.44,1.83l15.68,0c0.91,0 0.88,-0.92 0.88,-1.83l0,-14.17l14.79,0c0.91,0 1.21,-0.6 1.21,-1.51l0,-15.67c0,-0.91 -0.3,-1.82 -1.21,-1.82z"/>
  <path id="svg_8" fill="#fff" d="m9.014887,38.561963a1.09,1.09 0 0 1 -0.77,-1.87l26,-26a1.09,1.09 0 0 1 1.56,1.53l-26,26a1.09,1.09 0 0 1 -0.79,0.34z"/>
  <path id="svg_9" fill="#fff" d="m2.024887,38.561963a1.09,1.09 0 0 1 -0.77,-1.87l33,-33a1.09,1.09 0 1 1 1.55,1.55l-33,33a1.09,1.09 0 0 1 -0.78,0.32z"/>
  <path id="svg_10" fill="#fff" d="m0.374887,33.121963a1.09,1.09 0 0 1 -0.77,-1.87l13.61,-13.6a1.09,1.09 0 0 1 1.59,1.55l-13.66,13.61a1.09,1.09 0 0 1 -0.77,0.31z"/>
  <path id="svg_11" fill="#fff" d="m18.504887,15.011963a1.09,1.09 0 0 1 -0.78,-1.89l13.08,-13a1.09,1.09 0 1 1 1.55,1.55l-13.08,13.02a1.09,1.09 0 0 1 -0.77,0.32z"/>
  <path id="svg_12" fill="#fff" d="m15.564887,9.791963a1.09,1.09 0 0 1 -0.76,-1.87l5.88,-5.88a1.09,1.09 0 1 1 1.55,1.55l-5.88,5.88a1.09,1.09 0 0 1 -0.79,0.32z"/>
  <path id="svg_13" fill="#fff" d="m-0.195113,26.381963a1.09,1.09 0 0 1 -0.74,-1.9l7.37,-6.8a1.09,1.09 0 1 1 1.48,1.61l-7.36,6.83a1.09,1.09 0 0 1 -0.75,0.26z"/>
  <path id="svg_14" fill="#fff" d="m15.584887,38.691963a1.09,1.09 0 0 1 -0.78,-1.87l19.6,-19.59a1.09,1.09 0 0 1 1.55,1.55l-19.59,19.59a1.09,1.09 0 0 1 -0.78,0.32z"/>
  <path id="svg_15" fill="#fff" d="m15.584887,45.721963a1.09,1.09 0 0 1 -0.78,-1.87l26,-26a1.09,1.09 0 0 1 1.55,1.55l-26,26a1.09,1.09 0 0 1 -0.77,0.32z"/>
  <path id="svg_16" fill="#fff" d="m15.584887,52.701963a1.09,1.09 0 0 1 -0.78,-1.86l33,-33a1.09,1.09 0 1 1 1.55,1.55l-33,33a1.09,1.09 0 0 1 -0.77,0.31z"/>
  <path id="svg_17" fill="#fff" d="m38.264887,37.121963a1.09,1.09 0 0 1 -0.77,-1.87l14.13,-14.13a1.09,1.09 0 0 1 1.55,1.55l-14.13,14.12a1.09,1.09 0 0 1 -0.78,0.33z"/>
  <path id="svg_18" fill="#fff" d="m21.014887,54.361963a1.09,1.09 0 0 1 -0.77,-1.87l13.56,-13.61a1.09,1.09 0 0 1 1.55,1.55l-13.55,13.61a1.09,1.09 0 0 1 -0.79,0.32z"/>
  <path id="svg_19" fill="#fff" d="m29.174887,54.361963a1.09,1.09 0 0 1 -0.77,-1.87l5.88,-5.88a1.09,1.09 0 0 1 1.52,1.51l-5.88,5.88a1.09,1.09 0 0 1 -0.75,0.36z"/>
  <path id="svg_20" fill="#fff" d="m43.434887,38.691963a1.09,1.09 0 0 1 -0.74,-1.9l7.37,-6.8a1.09,1.09 0 1 1 1.48,1.61l-7.37,6.8a1.09,1.09 0 0 1 -0.74,0.29z"/>
 </g>
</svg>