<?xml version="1.0" encoding="utf-8"?>
<svg  
    version="1.1" xmlns="http://www.w3.org/2000/svg" 
    xmlns:xlink="http://www.w3.org/1999/xlink" x="0px" y="0px" width="100%" height="100%"
    viewBox="0 0 77 70.7" enable-background="new 0 0 77 70.7" xml:space="preserve">    
    <style type="text/css">
            .st0{fill:#FFFFFF;stroke:#999999;stroke-width:0.5;stroke-linecap:round;stroke-linejoin:round;stroke-miterlimit:10;}
            .st1{fill:#357EBD;}
            .st2{fill:#357EBD;stroke:#C9302C;stroke-width:0.5;stroke-linecap:round;stroke-linejoin:round;stroke-miterlimit:10;}
            .st3{fill:#C9302C;stroke:#999999;stroke-width:0.5;stroke-linecap:round;stroke-linejoin:round;stroke-miterlimit:10;}
            .st4{fill:#357EBD;stroke:#999999;stroke-width:0.5;stroke-linecap:round;stroke-linejoin:round;stroke-miterlimit:10;}
            .st5{fill:#C9302C;}
            .st6{fill:none;}
            .st7{fill:#FFFFFF;fill-opacity:0;}
    </style>
    <g id="medio" idLado="1">
        <rect class="polygon_primario" selected="false" id="cara_central_primario" x="17.7" y="16.2" fill="#FFFFFF" stroke="black" stroke-width="1" stroke-linecap="round" stroke-linejoin="round" stroke-miterlimit="10" width="41.2" height="38.5"/>
        <g id="fractura_horizontal" class="visible-hidden b">
            <rect id="cara_central" x="17.9" y="16.2" fill="none" stroke="black" stroke-width="1" stroke-linecap="round" stroke-linejoin="round" stroke-miterlimit="10" width="41.2" height="38.5"/>
            <rect  x="35" y="14.9" transform="matrix(-1.836970e-16 1 -1 -1.836970e-16 73.8684 -3.1316)" fill="#357EBD" width="7" height="41"/>
        </g>
        <g  id="fractura_vertical" class="visible-hidden b">
            <rect  id="cara_central" x="17.7" y="16.2" fill="none" stroke="black" stroke-width="1" stroke-linecap="round" stroke-linejoin="round" stroke-miterlimit="10" width="41.2" height="38.5"/>
            <rect  x="34.5" y="16.4" fill="#357EBD" width="7" height="38"/>
        </g>               
        <rect  class="visible-hidden b" id="restauracion_a_tratar" x="17.7" y="16.2" fill="#357EBD" stroke="#C9302C" stroke-width="8" stroke-linecap="round" stroke-linejoin="round" stroke-miterlimit="10" width="41.2" height="38.5"/>
        <rect  class="visible-hidden b" id="mancha_blanca" x="17.7" y="16.2" fill="#357EBD" stroke="black" stroke-width="1" stroke-linecap="round" stroke-linejoin="round" stroke-miterlimit="10" width="41.2" height="38.5"/>
        <rect  class="visible-hidden b" id="caries_penetrante" x="17.7" y="16.2" fill="#357EBD" stroke="black" stroke-width="1" stroke-linecap="round" stroke-linejoin="round" stroke-miterlimit="10" width="41.2" height="38.5"/>
        <rect  class="visible-hidden b" id="caries_no_penetrante" x="17.7" y="16.2" fill="#357EBD" stroke="black" stroke-width="1" stroke-linecap="round" stroke-linejoin="round" stroke-miterlimit="10" width="41.2" height="38.5"/>
        <rect  class="visible-hidden b" id="surco_permanente" x="17.7" y="16.2" fill="#357EBD" stroke="black" stroke-width="1" stroke-linecap="round" stroke-linejoin="round" stroke-miterlimit="10" width="41.2" height="38.5"/>
        <rect  class="visible-hidden b" id="restauracion" x="17.7" y="16.2" fill="#C9302C" stroke="#C9302C" stroke-width="8" stroke-linecap="round" stroke-linejoin="round" stroke-miterlimit="10" width="41.2" height="38.5"/>
        <rect  class="visible-hidden b" id="rest_composite" x="17.7" y="16.2" fill="#C9302C" stroke="#C9302C" stroke-width="8" stroke-linecap="round" stroke-linejoin="round" stroke-miterlimit="10" width="41.2" height="38.5"/>
        <rect  class="visible-hidden b" id="rest_ionomero" x="17.7" y="16.2" fill="#C9302C" stroke="#C9302C" stroke-width="8" stroke-linecap="round" stroke-linejoin="round" stroke-miterlimit="10" width="41.2" height="38.5"/>
        <rect  class="visible-hidden b" id="rest_amalgama" x="17.7" y="16.2" fill="#C9302C" stroke="#C9302C" stroke-width="8" stroke-linecap="round" stroke-linejoin="round" stroke-miterlimit="10" width="41.2" height="38.5"/>
        <rect  class="visible-hidden b" id="incrustacion" x="17.7" y="16.2" fill="#C9302C" stroke="#C9302C" stroke-width="8" stroke-linecap="round" stroke-linejoin="round" stroke-miterlimit="10" width="41.2" height="38.5"/>
        <rect  class="visible-hidden b" id="sellador" x="17.7" y="16.2" fill="#C9302C" stroke="#C9302C" stroke-width="8" stroke-linecap="round" stroke-linejoin="round" stroke-miterlimit="10" width="41.2" height="38.5"/>
    </g>
    <g id="inferior" idLado="3">
        <polygon class="polygon_primario" selected="false" id="cara_inferior_primario" fill="#FFFFFF" stroke="black" stroke-width="1" stroke-linecap="round" stroke-linejoin="round" stroke-miterlimit="10" points="
        76.5,70.6 58.9,54.5 17.8,54.5 0.2,70.6 	"/>
        <g id="fractura_horizontal" class="visible-hidden b" >
            <polygon  id="cara_inferior" fill="none" stroke="black" stroke-width="1" stroke-linecap="round" stroke-linejoin="round" stroke-miterlimit="10" points="
                    76.5,70.6 58.9,54.5 17.8,54.5 0.2,70.6"/>
            <polygon fill="#357EBD" points="6,65.5 71.1,65.4 64.6,59.4 13,59.2 		"/>
        </g>
        <g id="fractura_vertical" class="visible-hidden b" >
            <polygon id="cara_inferior" fill="none" stroke="black" stroke-width="1" stroke-linecap="round" stroke-linejoin="round" stroke-miterlimit="10" points="
            76.5,70.6 58.9,54.5 17.8,54.5 0.2,70.6 		"/>
            <rect  x="34.8" y="54.6" fill="#357EBD" width="6.3" height="16"/>
        </g>
        <polygon class="visible-hidden b"  id="restauracion_a_tratar" fill="#357EBD" stroke="#C9302C" stroke-width="8" stroke-linecap="round" stroke-linejoin="round" stroke-miterlimit="10" points="
        76.5,70.6 58.9,54.5 17.8,54.5 0.2,70.6 	"/>
        <polygon class="visible-hidden b"  id="restauracion" fill="#C9302C" stroke="black" stroke-width="1" stroke-linecap="round" stroke-linejoin="round" stroke-miterlimit="10" points="
        76.5,70.6 58.9,54.5 17.8,54.5 0.2,70.6 	"/>        
        <polygon class="visible-hidden b"  id="rest_composite" fill="#C9302C" stroke="black" stroke-width="1" stroke-linecap="round" stroke-linejoin="round" stroke-miterlimit="10" points="
        76.5,70.6 58.9,54.5 17.8,54.5 0.2,70.6 	"/>
        <polygon class="visible-hidden b"  id="rest_ionomero" fill="#C9302C" stroke="black" stroke-width="1" stroke-linecap="round" stroke-linejoin="round" stroke-miterlimit="10" points="
        76.5,70.6 58.9,54.5 17.8,54.5 0.2,70.6 	"/>
        <polygon class="visible-hidden b"  id="rest_amalgama" fill="#C9302C" stroke="black" stroke-width="1" stroke-linecap="round" stroke-linejoin="round" stroke-miterlimit="10" points="
        76.5,70.6 58.9,54.5 17.8,54.5 0.2,70.6 	"/>
        <polygon class="visible-hidden b"  id="incrustacion" fill="#C9302C" stroke="black" stroke-width="1" stroke-linecap="round" stroke-linejoin="round" stroke-miterlimit="10" points="
        76.5,70.6 58.9,54.5 17.8,54.5 0.2,70.6 	"/>
        <polygon class="visible-hidden b"  id="sellador" fill="#C9302C" stroke="black" stroke-width="1" stroke-linecap="round" stroke-linejoin="round" stroke-miterlimit="10" points="
        76.5,70.6 58.9,54.5 17.8,54.5 0.2,70.6 	"/>        
        <polygon class="visible-hidden b"  id="mancha_blanca" fill="#357EBD" stroke="black" stroke-width="1" stroke-linecap="round" stroke-linejoin="round" stroke-miterlimit="10" points="
        76.5,70.6 58.9,54.5 17.8,54.5 0.2,70.6 	"/>
        <polygon class="visible-hidden b"  id="caries_penetrante" fill="#357EBD" stroke="black" stroke-width="1" stroke-linecap="round" stroke-linejoin="round" stroke-miterlimit="10" points="
        76.5,70.6 58.9,54.5 17.8,54.5 0.2,70.6 	"/>
        <polygon class="visible-hidden b"  id="caries_no_penetrante" fill="#357EBD" stroke="black" stroke-width="1" stroke-linecap="round" stroke-linejoin="round" stroke-miterlimit="10" points="
        76.5,70.6 58.9,54.5 17.8,54.5 0.2,70.6 	"/>
        <polygon class="visible-hidden b"  id="surco_permanente" fill="#357EBD" stroke="black" stroke-width="1" stroke-linecap="round" stroke-linejoin="round" stroke-miterlimit="10" points="
        76.5,70.6 58.9,54.5 17.8,54.5 0.2,70.6 	"/>
    </g>
    <g id="superior" idLado="2">
        <polygon class="polygon_primario" selected="false" id="cara_superior_primario" fill="#FFFFFF" stroke="black" stroke-width="1" stroke-linecap="round" stroke-linejoin="round" stroke-miterlimit="10" points="
        0.2,0.2 17.8,16.3 58.9,16.3 76.5,0.2 	"/>
        <g id="fractura_horizontal" class="visible-hidden b">
            <polygon id="cara_superior" fill="none" stroke="black" stroke-width="1" stroke-linecap="round" stroke-linejoin="round" stroke-miterlimit="10" points="
            0.2,0.2 17.8,16.3 58.9,16.3 76.5,0.2 		"/>
            <polygon fill="#357EBD" points="71.1,5.2 6,5.4 12.5,11.4 64.1,11.5"/>
        </g>
        <g id="fractura_vertical" class="visible-hidden b">
            <g id="fractura_horizontal">
                <polygon id="cara_superior" fill="none" stroke="black" stroke-width="1" stroke-linecap="round" stroke-linejoin="round" stroke-miterlimit="10" points="
                0.2,0.2 17.8,16.3 58.9,16.3 76.5,0.2 			"/>
            </g>
            <rect  x="34.8" y="0.2" fill="#357EBD" width="6.3" height="16"/>
        </g>
        <polygon class="visible-hidden b" id="restauracion_a_tratar" fill="#357EBD" stroke="#C9302C" stroke-width="8" stroke-linecap="round" stroke-linejoin="round" stroke-miterlimit="10" points="
        0.2,0.2 17.8,16.3 59,16.3 76.5,0.2 	"/>
        <polygon class="visible-hidden b" id="sellador" fill="#C9302C" stroke="black" stroke-width="1" stroke-linecap="round" stroke-linejoin="round" stroke-miterlimit="10" points="
        0.2,0.2 17.8,16.3 59,16.3 76.5,0.2 	"/>
        <polygon class="visible-hidden b" id="incrustacion" fill="#C9302C" stroke="black" stroke-width="1" stroke-linecap="round" stroke-linejoin="round" stroke-miterlimit="10" points="
        0.2,0.2 17.8,16.3 59,16.3 76.5,0.2 	"/>
        <polygon class="visible-hidden b" id="rest_amalgama" fill="#C9302C" stroke="black" stroke-width="1" stroke-linecap="round" stroke-linejoin="round" stroke-miterlimit="10" points="
        0.2,0.2 17.8,16.3 59,16.3 76.5,0.2 	"/>
        <polygon class="visible-hidden b" id="rest_ionomero" fill="#C9302C" stroke="black" stroke-width="1" stroke-linecap="round" stroke-linejoin="round" stroke-miterlimit="10" points="
        0.2,0.2 17.8,16.3 59,16.3 76.5,0.2 	"/>
        <polygon class="visible-hidden b" id="rest_composite" fill="#C9302C" stroke="black" stroke-width="1" stroke-linecap="round" stroke-linejoin="round" stroke-miterlimit="10" points="
        0.2,0.2 17.8,16.3 59,16.3 76.5,0.2 	"/>
        <polygon class="visible-hidden b" id="restauracion" fill="#C9302C" stroke="black" stroke-width="1" stroke-linecap="round" stroke-linejoin="round" stroke-miterlimit="10" points="
        0.2,0.2 17.8,16.3 59,16.3 76.5,0.2 	"/>
        <polygon class="visible-hidden b" id="mancha_blanca" fill="#357EBD" stroke="black" stroke-width="1" stroke-linecap="round" stroke-linejoin="round" stroke-miterlimit="10" points="
        0.2,0.2 18,16.3 59,16.3 76.5,0.2 	"/>
        <polygon class="visible-hidden b" id="caries_penetrante" fill="#357EBD" stroke="black" stroke-width="1" stroke-linecap="round" stroke-linejoin="round" stroke-miterlimit="10" points="
        0.2,0.2 18,16.3 59,16.3 76.5,0.2 	"/>
        <polygon class="visible-hidden b" id="caries_no_penetrante" fill="#357EBD" stroke="black" stroke-width="1" stroke-linecap="round" stroke-linejoin="round" stroke-miterlimit="10" points="
        0.2,0.2 18,16.3 59,16.3 76.5,0.2 	"/>
        <polygon class="visible-hidden b" id="surco_permanente" fill="#357EBD" stroke="black" stroke-width="1" stroke-linecap="round" stroke-linejoin="round" stroke-miterlimit="10" points="
        0.2,0.2 18,16.3 59,16.3 76.5,0.2 	"/>
    </g>
    <g id="derecha" idLado="5">
        <polygon class="polygon_primario" selected="false" id="cara_derecha_primario" fill="#FFFFFF" stroke="black" stroke-width="1" stroke-linecap="round" stroke-linejoin="round" stroke-miterlimit="10" points="
        76.5,0.2 58.9,16.3 58.9,54.5 76.5,70.6 	"/>
        <g id="fractura_vertical" class="visible-hidden b">
            <polygon id="patologia_a_tratar" fill="none" stroke="black" stroke-width="1" stroke-linecap="round" stroke-linejoin="round" stroke-miterlimit="10" points="
            76.5,0.2 58.9,16.3 58.9,54.5 76.5,70.6 		"/>
            <polygon fill="#357EBD" points="71.1,65.5 71.1,5.2 64.8,11.2 64.8,59.6 		"/>
        </g>
        <g id="fractura_horizontal" class="visible-hidden b">
            <polygon id="patologia_a_tratar" fill="none" stroke="black" stroke-width="1" stroke-linecap="round" stroke-linejoin="round" stroke-miterlimit="10" points="
            76.5,0.2 58.9,16.3 58.9,54.5 76.5,70.6 		"/>
            <rect x="59" y="32.2" fill="#357EBD" width="17.5" height="6.3"/>
        </g>
        <polygon class="visible-hidden b" id="restauracion_a_tratar" fill="#357EBD" stroke="#C9302C" stroke-width="8" stroke-linecap="round" stroke-linejoin="round" stroke-miterlimit="10" points="
        76.5,0.2 58.9,16.3 58.9,54.5 76.5,70.6 	"/>
        <polygon class="visible-hidden b" id="restauracion" fill="#C9302C" stroke="black" stroke-width="1" stroke-linecap="round" stroke-linejoin="round" stroke-miterlimit="10" points="
        76.5,0.2 58.9,16.3 58.9,54.5 76.5,70.6 	"/>
        <polygon class="visible-hidden b" id="rest_composite" fill="#C9302C" stroke="black" stroke-width="1" stroke-linecap="round" stroke-linejoin="round" stroke-miterlimit="10" points="
        76.5,0.2 58.9,16.3 58.9,54.5 76.5,70.6 	"/>
        <polygon class="visible-hidden b" id="rest_ionomero" fill="#C9302C" stroke="black" stroke-width="1" stroke-linecap="round" stroke-linejoin="round" stroke-miterlimit="10" points="
        76.5,0.2 58.9,16.3 58.9,54.5 76.5,70.6 	"/>
        <polygon class="visible-hidden b" id="rest_amalgama" fill="#C9302C" stroke="black" stroke-width="1" stroke-linecap="round" stroke-linejoin="round" stroke-miterlimit="10" points="
        76.5,0.2 58.9,16.3 58.9,54.5 76.5,70.6 	"/>
        <polygon class="visible-hidden b" id="incrustacion" fill="#C9302C" stroke="black" stroke-width="1" stroke-linecap="round" stroke-linejoin="round" stroke-miterlimit="10" points="
        76.5,0.2 58.9,16.3 58.9,54.5 76.5,70.6 	"/>
        <polygon class="visible-hidden b" id="sellador" fill="#C9302C" stroke="black" stroke-width="1" stroke-linecap="round" stroke-linejoin="round" stroke-miterlimit="10" points="
        76.5,0.2 58.9,16.3 58.9,54.5 76.5,70.6 	"/>
        <polygon class="visible-hidden b" id="surco_permanente" fill="#357EBD" stroke="black" stroke-width="1" stroke-linecap="round" stroke-linejoin="round" stroke-miterlimit="10" points="
        76.5,0.2 58.9,16.3 58.9,54.5 76.5,70.6 	"/>
        <polygon class="visible-hidden b" id="caries_no_penetrante" fill="#357EBD" stroke="black" stroke-width="1" stroke-linecap="round" stroke-linejoin="round" stroke-miterlimit="10" points="
        76.5,0.2 58.9,16.3 58.9,54.5 76.5,70.6 	"/>
        <polygon class="visible-hidden b" id="caries_penetrante" fill="#357EBD" stroke="black" stroke-width="1" stroke-linecap="round" stroke-linejoin="round" stroke-miterlimit="10" points="
        76.5,0.2 58.9,16.3 58.9,54.5 76.5,70.6 	"/>
        <polygon class="visible-hidden b" id="mancha_blanca" fill="#357EBD" stroke="black" stroke-width="1" stroke-linecap="round" stroke-linejoin="round" stroke-miterlimit="10" points="
        76.5,0.2 58.9,16.3 58.9,54.5 76.5,70.6 	"/>        
    </g>
    <g id="izquierda" idLado="4">
        <polygon class="polygon_primario" selected="false" id="cara_izquierda_primario" fill="#FFFFFF" stroke="black" stroke-width="1" stroke-linecap="round" stroke-linejoin="round" stroke-miterlimit="10" points="
        0.2,70.6 17.8,54.5 17.8,16.3 0.2,0.2 	"/>
        <g id="fractura_vertical" class="visible-hidden b">
            <polygon id="patologia_a_tratar" fill="none" stroke="black" stroke-width="1" stroke-linecap="round" stroke-linejoin="round" stroke-miterlimit="10" points="
            0.2,70.6 17.8,54.5 17.8,16.3 0.2,0.2 		"/>
            <polygon fill="#357EBD" points="5.8,5.2 5.8,65.5 12.1,59.6 12.1,11.2 		"/>
        </g>
        <g id="fractura_horizontal" class="visible-hidden b">
            <polygon id="patologia_a_tratar" fill="none" stroke="black" stroke-width="1" stroke-linecap="round" stroke-linejoin="round" stroke-miterlimit="10" points="
            0.2,70.6 17.8,54.5 17.8,16.3 0.2,0.2 		"/>
            <rect x="0" y="32.2" fill="#357EBD" width="18" height="6.3"/>
        </g>
        <polygon  class="visible-hidden b" id="restauracion_a_tratar" fill="#357EBD" stroke="#C9302C" stroke-width="8" stroke-linecap="round" stroke-linejoin="round" stroke-miterlimit="10" points="
        0.2,70.6 17.8,54.5 17.8,16.3 0.2,0.2 	"/>
        <polygon class="visible-hidden b" id="sellador" fill="#C9302C" stroke="black" stroke-width="1" stroke-linecap="round" stroke-linejoin="round" stroke-miterlimit="10" points="
        0.2,70.6 17.8,54.5 17.8,16.3 0.2,0.2 	"/>
        <polygon class="visible-hidden b" id="incrustacion" fill="#C9302C" stroke="black" stroke-width="1" stroke-linecap="round" stroke-linejoin="round" stroke-miterlimit="10" points="
        0.2,70.6 17.8,54.5 17.8,16.3 0.2,0.2 	"/>
        <polygon class="visible-hidden b" id="rest_amalgama" fill="#C9302C" stroke="black" stroke-width="1" stroke-linecap="round" stroke-linejoin="round" stroke-miterlimit="10" points="
        0.2,70.6 17.8,54.5 17.8,16.3 0.2,0.2 	"/>
        <polygon class="visible-hidden b" id="rest_ionomero" fill="#C9302C" stroke="black" stroke-width="1" stroke-linecap="round" stroke-linejoin="round" stroke-miterlimit="10" points="
        0.2,70.6 17.8,54.5 17.8,16.3 0.2,0.2 	"/>
        <polygon class="visible-hidden b" id="rest_composite" fill="#C9302C" stroke="black" stroke-width="1" stroke-linecap="round" stroke-linejoin="round" stroke-miterlimit="10" points="
        0.2,70.6 17.8,54.5 17.8,16.3 0.2,0.2 	"/>
        <polygon class="visible-hidden b" id="restauracion" fill="#C9302C" stroke="black" stroke-width="1" stroke-linecap="round" stroke-linejoin="round" stroke-miterlimit="10" points="
        0.2,70.6 17.8,54.5 17.8,16.3 0.2,0.2 	"/>
        <polygon class="visible-hidden b" id="mancha_blanca" fill="#357EBD" stroke="black" stroke-width="1" stroke-linecap="round" stroke-linejoin="round" stroke-miterlimit="10" points="
        0.2,70.6 17.8,54.5 17.8,16.3 0.2,0.2 	"/>
        <polygon class="visible-hidden b" id="caries_penetrante" fill="#357EBD" stroke="black" stroke-width="1" stroke-linecap="round" stroke-linejoin="round" stroke-miterlimit="10" points="
        0.2,70.6 17.8,54.5 17.8,16.3 0.2,0.2 	"/>
        <polygon class="visible-hidden b" id="caries_no_penetrante" fill="#357EBD" stroke="black" stroke-width="1" stroke-linecap="round" stroke-linejoin="round" stroke-miterlimit="10" points="
        0.2,70.6 17.8,54.5 17.8,16.3 0.2,0.2 	"/>
        <polygon class="visible-hidden b" id="surco_permanente" fill="#357EBD" stroke="black" stroke-width="1" stroke-linecap="round" stroke-linejoin="round" stroke-miterlimit="10" points="
        0.2,70.6 17.8,54.5 17.8,16.3 0.2,0.2 	"/>
    </g>
    <g idLado="6">
    <g id="pieza_ausente" class="visible-hidden b" notClickeable="true" idLado="6">
        <g>
            <g>
                <rect  x="11.2" y="19.7" fill="#C9302C" width="54.5" height="7.8"/>
                <rect  x="11.2" y="43.1" fill="#C9302C" width="54.5" height="7.8"/>
            </g>
            <rect  x="3.4" y="0.3" fill="none" width="70.1" height="70.1"/>
        </g>
    </g>
    </g>
    <g  idLado="6">
        <g id="pieza_no_erupcionada" notClickeable="true" class="visible-hidden b">
        <g>
            <g>
                <rect x="11.2" y="19.8" fill="#357EBD" width="54.4" height="7.8"/>
                <rect x="11.2" y="43.1" fill="#357EBD" width="54.4" height="7.8"/>
            </g>
            <rect x="3.5" y="0.4" fill="none" width="70" height="70"/>
        </g>
    </g>
    </g>
<g  idLado="6">
    <g id="implante" class="visible-hidden b" notClickeable="true" idLado="6">
        <g>
            <polygon fill="#C9302C" points="56.2,13.3 53.2,10.3 20.7,10.3 17.8,13.3 17.8,19.1 26.6,19.1 26.6,25 47.3,22 47.3,19.1 
                    56.2,19.1 		"/>
            <polygon fill="#C9302C" points="47.3,34.3 26.6,37.2 26.6,31.3 47.3,28.1 		"/>
            <polygon fill="#C9302C" points="47.3,46 26.6,48.9 26.6,43 47.3,39.8 		"/>
            <polygon fill="#C9302C" points="47.3,60.5 26.6,60.5 26.6,54.6 47.3,51.4 		"/>
            <rect  x="3" y="-0.1" fill="none" width="71" height="71"/>
        </g>
    </g>
    </g>
    <g  idLado="6">
    <g id="corona" class="visible-hidden b" notClickeable="true" idLado="6">
        <g>
            <g>
                <path fill="#FFFFFF" fill-opacity="0" d="M38.5,61.6L38.5,61.6c-14.5,0-26.3-11.8-26.3-26.3v0C12.2,20.9,24,9.1,38.5,9.1h0
                c14.5,0,26.2,11.8,26.2,26.2v0C64.7,49.9,52.9,61.6,38.5,61.6z"/>
                <g>
                    <path fill="none" d="M3.5,0.4h70v70h-70V0.4z"/>
                    <path fill="#C9302C" d="M38.4,6.2C22.3,6.2,9.3,19.3,9.3,35.4c0,16.1,13,29.2,29.1,29.2c16.1,0,29.2-13.1,29.2-29.2
                    C67.6,19.3,54.6,6.2,38.4,6.2z M38.5,58.7c-12.9,0-23.3-10.4-23.3-23.3C15.1,22.5,25.6,12,38.5,12s23.3,10.4,23.3,23.3
                    C61.8,48.3,51.3,58.7,38.5,58.7z"/>
                </g>
            </g>
        </g>
    </g>
    </g>
    <g  idLado="6">
    <g id="indicacion_de_exodoncia" class="visible-hidden b" notClickeable="true" idLado="6">
        <g>
            <g>
                <path fill="#357EBD" d="M58.9,19.1L54.8,15L38.5,31.3L22.1,15L18,19.1l16.3,16.3L18,51.7l4.1,4.1l16.3-16.3l16.3,16.3l4.1-4.1
                        L42.6,35.4L58.9,19.1z"/>
                <rect  x="3.5" y="0.4" fill="none" width="70" height="70"/>
            </g>
        </g>
    </g>
    </g>
    <g  idLado="6">
    <g id="restos_radiculares" class="visible-hidden b" notClickeable="true" idLado="6">
        <path  class="st1" d="M69.6,67.2h-62c-1.9,0-3.5-1.6-3.5-3.5V7C4,5,5.6,3.5,7.5,3.5h62
            c1.9,0,3.5,1.6,3.5,3.5v56.8C73.1,65.7,71.5,67.2,69.6,67.2z"/>
    </g>
    </g>
</svg>
